<svg xmlns="http://www.w3.org/2000/svg" viewBox="0 0 200 200">
  <defs><radialGradient id="g" cx="30%" cy="28%" r="95%"><stop offset="0%" stop-color="#ffd76b"/><stop offset="55%" stop-color="#c41b1b"/><stop offset="100%" stop-color="#14060a"/></radialGradient></defs>
  <rect width="200" height="200" fill="url(#g)"/>
  <g fill="#fff8d6" opacity="0.85">
    <path d="M40 70 Q20 90 50 110 Q70 100 75 95 Z"/>
    <path d="M160 70 Q180 90 150 110 Q130 100 125 95 Z"/>
  </g>
  <g fill="#1a0a10">
    <ellipse cx="100" cy="90" rx="22" ry="18"/>
    <ellipse cx="100" cy="120" rx="28" ry="22"/>
    <rect x="92" y="105" width="16" height="6" rx="2"/>
    <path d="M84 138 Q100 158 116 138 L108 142 L100 152 L92 142 Z"/>
  </g>
  <g fill="#ffd76b">
    <rect x="86" y="106" width="3" height="4"/>
    <rect x="92" y="106" width="3" height="4"/>
    <rect x="98" y="106" width="3" height="4"/>
    <rect x="104" y="106" width="3" height="4"/>
    <rect x="110" y="106" width="3" height="4"/>
  </g>
</svg>
